<?xml version="1.0" encoding="UTF-8"?>
<svg xmlns="http://www.w3.org/2000/svg" id="Layer_1" viewBox="0 0 362.28 58.3">
  <defs>
    <style>.cls-1,.cls-2,.cls-3{fill:#fff;}.cls-4{fill:#41a0b0;}.cls-5{fill:none;stroke:#fff;stroke-linecap:round;stroke-linejoin:round;stroke-width:.99px;}.cls-2{font-size:11.93px;}.cls-2,.cls-3{font-family:GustanlpBold-Regular, 'Gustanlp Bold';isolation:isolate;}.cls-3{font-size:9.94px;}</style>
  </defs>
  <polygon class="cls-4" points="259.7 58.3 246.9 29.1 259.7 0 0 0 0 58.3 259.7 58.3"></polygon>
  <text class="cls-2" transform="translate(88.74 24.53)">
    <tspan x="0" y="0"> </tspan>
  </text>
  <g>
    <g>
      <path class="cls-1" d="M36.4,20.5c0,.7-.1,1.3-.2,1.8-.1,.5-.3,1-.6,1.3-.3,.4-.7,.6-1.1,.8-.5,.2-1.1,.3-1.8,.3s-1.3-.1-1.8-.3c-.5-.2-.9-.5-1.1-.8-.3-.4-.5-.8-.6-1.3s-.2-1.1-.2-1.8,.1-1.3,.2-1.8,.3-1,.6-1.3c.3-.4,.7-.6,1.1-.8,.5-.2,1.1-.3,1.8-.3s1.3,.1,1.8,.3c.5,.2,.9,.5,1.1,.8,.3,.4,.5,.8,.6,1.3,.1,.5,.2,1.1,.2,1.8Zm-1.8,0c0-.5,0-1-.1-1.4s-.2-.7-.3-.9c-.2-.2-.4-.4-.6-.5-.2-.1-.6-.2-.9-.2-.4,0-.7,.1-.9,.2s-.4,.3-.6,.5c-.2,.2-.3,.5-.3,.9-.1,.4-.1,.8-.1,1.4s0,1,.1,1.4,.2,.7,.3,.9c.2,.2,.4,.4,.6,.5,.2,.1,.6,.2,.9,.2,.4,0,.7-.1,.9-.2,.3-.1,.5-.3,.6-.5,.2-.2,.3-.5,.3-.9,.1-.4,.1-.9,.1-1.4Z"></path>
      <path class="cls-1" d="M41.3,23.5c.3,0,.6,0,.8-.1s.4-.2,.5-.3c.1-.1,.2-.3,.3-.5,0-.2,.1-.4,.1-.5v-5.5h1.6v5.3c0,.5-.1,.9-.2,1.2-.1,.4-.3,.7-.5,.9-.3,.3-.6,.5-1.1,.6-.4,.1-1,.2-1.6,.2s-1.1-.1-1.6-.2c-.4-.1-.8-.3-1.1-.6-.3-.3-.4-.6-.5-.9-.1-.4-.2-.8-.2-1.2v-5.3h1.6v5.4c0,.2,0,.4,.1,.5,0,.2,.1,.4,.3,.5,.1,.1,.3,.2,.5,.3,.4,.1,.6,.2,1,.2Z"></path>
      <path class="cls-1" d="M46.6,24.5v-8.1h3.3c.6,0,1.1,0,1.5,.1s.7,.2,.9,.5c.2,.2,.4,.5,.5,.8s.2,.7,.2,1.1-.1,.8-.2,1.1-.3,.6-.5,.8c-.1,.1-.3,.2-.5,.3s-.4,.2-.6,.2l2,3.1h-1.9l-2-3.1h-1.1v3.1h-1.6v.1Zm1.7-6.8v2.5h2.2c.2,0,.3-.1,.5-.2,.1-.1,.2-.2,.2-.4,.1-.2,.1-.4,.1-.6,0-.3,0-.5-.1-.6-.1-.2-.1-.3-.2-.4-.1-.1-.3-.2-.5-.2h-2.2v-.1Z"></path>
      <path class="cls-1" d="M63.1,24.5h-5.4v-8.1h1.6v6.8h3.8v1.3h0Z"></path>
      <path class="cls-1" d="M68.7,22.7h-3.1l-.6,1.9h-1.7l2.9-8.1h1.9l2.9,8.1h-1.7l-.6-1.9Zm-.4-1.3l-.6-1.7c-.1-.4-.2-.7-.3-1s-.2-.6-.2-.8h0c-.1,.3-.2,.5-.2,.8-.1,.3-.2,.6-.3,1l-.6,1.7h2.2Z"></path>
      <path class="cls-1" d="M74.9,20.5c-.2-.3-.4-.7-.6-1s-.3-.7-.5-.9h0v5.9h-1.6v-8.1h1.8l2.4,4c.1,.2,.2,.3,.3,.5s.2,.4,.3,.5c.1,.2,.2,.4,.3,.5,.1,.2,.2,.3,.2,.4h0v-5.9h1.6v8.1h-1.8l-2.4-4Z"></path>
      <path class="cls-1" d="M81.3,24.5v-8.1h2.9c.6,0,1.2,.1,1.7,.2s.9,.4,1.2,.7c.6,.7,.9,1.7,.9,3.1,0,1.5-.3,2.5-1,3.2-.3,.3-.7,.5-1.1,.7-.4,.1-1,.2-1.6,.2,0,0-3,0-3,0Zm3.2-1.2c.3,0,.5,0,.7-.1,.2,0,.4-.1,.6-.3,.2-.2,.4-.5,.5-.9s.2-.9,.2-1.5-.1-1.1-.2-1.5c-.1-.4-.3-.7-.5-.9-.2-.2-.3-.3-.6-.3-.2,0-.5-.1-.7-.1h-1.5v5.5h1.5v.1Z"></path>
    </g>
    <g>
      <path class="cls-1" d="M33.7,35.6h-3.1l-.6,1.9h-1.7l2.9-8.1h1.9l2.9,8.1h-1.7l-.6-1.9Zm-.4-1.3l-.6-1.7c-.1-.4-.2-.7-.3-1s-.2-.6-.2-.8h0c-.1,.3-.2,.5-.2,.8-.1,.3-.2,.6-.3,1l-.6,1.7h2.2Z"></path>
      <path class="cls-1" d="M39.8,33.5c-.2-.3-.4-.7-.6-1s-.3-.7-.5-.9h0v5.9h-1.6v-8.1h1.8l2.4,4c.1,.2,.2,.3,.3,.5s.2,.4,.3,.5c.1,.2,.2,.3,.3,.5s.2,.3,.2,.4h0v-5.9h1.6v8.1h-1.8l-2.4-4Z"></path>
      <path class="cls-1" d="M46.3,37.5v-8.1h2.9c.6,0,1.2,.1,1.7,.2s.9,.4,1.2,.7c.6,.7,.9,1.7,.9,3.1,0,1.5-.3,2.5-1,3.2-.3,.3-.7,.5-1.1,.7-.4,.1-1,.2-1.6,.2,0,0-3,0-3,0Zm3.2-1.3c.3,0,.5,0,.7-.1,.2,0,.4-.1,.6-.3,.2-.2,.4-.5,.5-.9s.2-.9,.2-1.5-.1-1.1-.2-1.5-.3-.7-.5-.9c-.2-.2-.3-.3-.6-.3-.2,0-.5-.1-.7-.1h-1.5v5.5h1.5v.1Z"></path>
    </g>
    <g>
      <path class="cls-1" d="M63.2,29.4l1.4,4.1c.1,.4,.2,.8,.4,1.2,.1,.4,.2,.8,.3,1.2h0c.1-.4,.1-.8,.2-1.2,.1-.4,.2-.8,.3-1.2l1.1-4.1h1.6l-2.2,8.1h-1.9l-1-3c-.1-.3-.2-.6-.3-1-.1-.3-.2-.6-.3-.9h0c-.1,.3-.2,.5-.3,.9-.1,.3-.2,.6-.3,1l-1,3h-1.9l-2.2-8.1h1.7l1,4.1c.1,.4,.2,.8,.3,1.2s.2,.8,.2,1.2h0c.1-.4,.2-.8,.3-1.1,.1-.4,.2-.8,.4-1.1l1-2.9-.5-1.3h1.7v-.1Z"></path>
      <path class="cls-1" d="M73.8,35.6h-3.1l-.6,1.9h-1.7l2.9-8.1h1.9l2.9,8.1h-1.7l-.6-1.9Zm-.4-1.3l-.6-1.7c-.1-.4-.2-.7-.3-1s-.2-.6-.2-.8h0c-.1,.3-.2,.5-.2,.8-.1,.3-.2,.6-.3,1l-.6,1.7h2.2Z"></path>
    </g>
    <g>
      <path class="cls-1" d="M79.9,37.5h-1.6v-6.8h-2.3v-1.3h6.2v1.3h-2.3v6.8h0Z"></path>
      <path class="cls-1" d="M88.8,37.5h-5.4v-8.1h5.3v1.3h-3.7v2.1h3.2v1.2h-3.2v2.2h3.8v1.3h0Z"></path>
      <path class="cls-1" d="M90.4,37.5v-8.1h3.3c.6,0,1.1,0,1.5,.1s.7,.2,.9,.5c.2,.2,.4,.5,.5,.8s.2,.7,.2,1.1-.1,.8-.2,1.1-.3,.6-.5,.8c-.1,.1-.3,.2-.5,.3s-.4,.2-.6,.2l2,3.1h-1.9l-2-3.1h-1.1v3.1h-1.6v.1Zm1.7-6.8v2.5h2.2c.2,0,.3-.1,.5-.2,.1-.1,.2-.2,.2-.4,.1-.2,.1-.4,.1-.6,0-.3,0-.5-.1-.6s-.1-.3-.2-.4c-.1-.1-.3-.2-.5-.2h-2.2v-.1Z"></path>
    </g>
  </g>
  <g>
    <path class="cls-1" d="M150.5,24.2h-.9v-6h-2v-.7h4.9v.7h-2v6Z"></path>
    <path class="cls-1" d="M158.2,21.6c0,.5-.1,.9-.2,1.3-.1,.3-.3,.6-.5,.8-.2,.2-.5,.4-.7,.4-.3,.1-.6,.1-1,.1s-.7,0-1-.1-.5-.2-.7-.4c-.2-.2-.4-.5-.5-.8s-.2-.8-.2-1.3,.1-.9,.2-1.3c.1-.3,.3-.6,.5-.8s.5-.4,.7-.4c.3-.1,.6-.1,1-.1s.7,0,1,.1,.5,.2,.7,.4,.4,.5,.5,.8c.1,.4,.2,.8,.2,1.3Zm-.9,0c0-.4,0-.7-.1-1s-.2-.5-.3-.6c-.1-.1-.3-.2-.5-.3-.2-.1-.4-.1-.6-.1s-.4,0-.6,.1-.3,.2-.5,.3c-.1,.1-.3,.3-.3,.6-.1,.3-.1,.6-.1,1s0,.7,.1,1,.2,.5,.3,.6c.1,.1,.3,.2,.5,.3s.4,.1,.6,.1,.4,0,.6-.1,.3-.2,.5-.3c.1-.1,.3-.3,.3-.6,.1-.2,.1-.6,.1-1Z"></path>
    <path class="cls-1" d="M160.6,18.3h-1v-.9h1v.9Zm0,5.9h-.8v-5.1h.8v5.1Z"></path>
    <path class="cls-1" d="M165.4,24c-.2,.1-.3,.1-.6,.2s-.4,0-.7,0-.5,0-.7-.1-.3-.1-.4-.3c-.1-.1-.2-.3-.2-.5s-.1-.5-.1-.9v-2.7h-.9v-.6l1-.1,.2-1.1h.6v1.1h1.7v.7h-1.7v3.3c0,.1,0,.2,.1,.3l.2,.2c.1,.1,.3,0,.4,0h.5c.1,0,.2,0,.3-.1s.2-.1,.2-.1v.7h.1Z"></path>
    <path class="cls-1" d="M170.2,23.4c-.3,.3-.6,.5-.9,.6s-.7,.2-1,.2-.6,0-.8-.1c-.2-.1-.4-.2-.5-.3s-.2-.3-.3-.5-.1-.4-.1-.7v-3.6h.8v3.4c0,.4,.1,.6,.2,.8,.1,.2,.4,.2,.8,.2,.3,0,.6-.1,.9-.2s.5-.3,.7-.6v-3.6h.8v5.1h-.6v-.7h0Zm.2-5.2h-3.3v-.7h3.3v.7Z"></path>
    <path class="cls-1" d="M178.2,24c-.2,.1-.3,.1-.6,.2s-.4,0-.7,0-.5,0-.7-.1-.3-.1-.4-.3c-.1-.1-.2-.3-.2-.5s-.1-.5-.1-.9v-2.7h-.7v-.6l1-.1,.2-1.1h.6v1.1h1.7v.7h-1.7v3.3c0,.1,0,.2,.1,.3l.2,.2c.1,.1,.3,0,.4,0h.5c.1,0,.2,0,.3-.1s.2-.1,.2-.1v.7h-.1Z"></path>
    <path class="cls-1" d="M180.1,21.8c0,.3,0,.6,.1,.8s.2,.4,.3,.6c.2,.2,.7,.4,1.2,.4h.7c.3,0,.5-.1,.8-.2v.6c-.2,.1-.5,.2-.8,.2h-.8c-.8,0-1.5-.2-1.8-.6-.4-.4-.6-1.1-.6-2,0-.5,.1-.9,.2-1.3,.1-.3,.3-.6,.5-.8,.2-.2,.4-.4,.7-.4s.6-.1,.9-.1c.7,0,1.2,.2,1.5,.5,.3,.4,.5,.9,.5,1.6v.7s-3.4,0-3.4,0Zm1.4-2.1c-.2,0-.3,0-.5,.1s-.3,.1-.4,.3c-.2,.2-.4,.6-.4,1.1h2.5v-.2c0-.2,0-.4-.1-.6,0-.2-.1-.3-.2-.4s-.2-.2-.4-.2-.3-.1-.5-.1Z"></path>
    <path class="cls-1" d="M191.4,19.7c0,.1-.1,.3-.2,.5s-.1,.4-.2,.6-.1,.4-.2,.6-.1,.4-.2,.5l-.8,2.3h-1l-1.9-6.7h.9l.8,3c.1,.4,.2,.9,.4,1.3,.1,.5,.2,.9,.3,1.4h0c.1-.4,.3-.9,.5-1.3s.3-.9,.5-1.3l.7-2-.4-1.1h.9l1,2.9c.2,.5,.3,.9,.5,1.4s.3,1,.5,1.4h0c.1-.5,.3-1,.4-1.4,.1-.5,.3-1,.4-1.5l.8-2.8h.9l-1.9,6.7h-1l-.8-2.3c-.1-.2-.1-.3-.2-.5s-.1-.4-.2-.6-.1-.4-.2-.6c-.2-.2-.2-.4-.3-.5h0Z"></path>
    <path class="cls-1" d="M198,19.7c.3-.3,.6-.5,.9-.6s.6-.2,.9-.2,.6,0,.8,.1c.2,.1,.4,.2,.5,.3,.1,.1,.2,.3,.3,.5,0,.2,.1,.4,.1,.7v3.6h-.8v-3.4c0-.4-.1-.6-.2-.8-.1-.2-.4-.2-.8-.2-.3,0-.6,.1-.9,.2s-.5,.3-.7,.6v3.6h-.8v-6.7h.8l-.1,2.3h0Z"></path>
    <path class="cls-1" d="M203.8,21.8c0,.3,0,.6,.1,.8s.2,.4,.3,.6c.2,.2,.7,.4,1.2,.4h.7c.3,0,.5-.1,.8-.2v.6c-.2,.1-.5,.2-.8,.2h-.8c-.8,0-1.5-.2-1.8-.6-.4-.4-.6-1.1-.6-2,0-.5,.1-.9,.2-1.3,.1-.3,.3-.6,.5-.8,.2-.2,.4-.4,.7-.4s.6-.1,.9-.1c.7,0,1.2,.2,1.5,.5,.3,.4,.5,.9,.5,1.6v.7s-3.4,0-3.4,0Zm1.3-2.1c-.2,0-.3,0-.5,.1s-.3,.1-.4,.3c-.2,.2-.4,.6-.4,1.1h2.5v-.2c0-.2,0-.4-.1-.6,0-.2-.1-.3-.2-.4s-.2-.2-.4-.2-.3-.1-.5-.1Z"></path>
    <path class="cls-1" d="M209.4,19.8c.3-.3,.6-.5,.9-.6s.7-.2,1-.2,.6,0,.8,.1c.2,.1,.4,.2,.5,.3,.1,.1,.2,.3,.3,.5,0,.2,.1,.4,.1,.7v3.6h-.8v-3.4c0-.4-.1-.6-.2-.8-.1-.2-.4-.2-.8-.2-.3,0-.6,.1-.9,.2s-.5,.3-.7,.6v3.6h-.8v-5.1h.6v.7h0Z"></path>
    <path class="cls-1" d="M218.2,23.4c-.3,.3-.6,.5-.9,.6s-.7,.2-1,.2-.6,0-.8-.1c-.2-.1-.4-.2-.5-.3s-.2-.3-.3-.5-.1-.4-.1-.7v-3.6h.8v3.4c0,.4,.1,.6,.2,.8,.1,.2,.4,.2,.8,.2,.3,0,.6-.1,.9-.2s.5-.3,.7-.6v-3.6h.8v5.1h-.6v-.7h0Z"></path>
    <path class="cls-1" d="M222.7,21.1h1v-.6c0-.2,0-.3-.1-.5,0-.1-.1-.2-.2-.3-.1-.1-.2-.1-.4-.1h-1.3c-.3,0-.6,.1-.9,.1v-.7c.1,0,.3-.1,.4-.1,.2,0,.3,0,.5-.1h.8c.3,0,.6,0,.9,.1,.2,0,.4,.1,.6,.2s.3,.3,.4,.5,.1,.4,.1,.8v3.7h-.6l-.1-.5h0c-.2,.2-.5,.4-.7,.5-.3,.1-.6,.2-.9,.2s-.5,0-.8-.1c-.2-.1-.4-.2-.6-.3-.1-.1-.2-.3-.3-.5s-.1-.4-.1-.6,0-.5,.1-.6,.2-.3,.3-.4c.2-.2,.5-.3,.8-.4,.4-.2,.7-.3,1.1-.3Zm1,.7h-1.4c-.1,0-.3,0-.4,.1-.1,0-.2,.1-.2,.1-.1,0-.1,.1-.2,.1q-.1,.1-.1,.2v.4c0,.3,.1,.5,.3,.6,.2,.1,.4,.2,.7,.2s.6-.1,.8-.2c.2-.1,.4-.3,.5-.5v-1h0Z"></path>
    <path class="cls-1" d="M226.4,23h1.1l-1,2.3h-.6l.5-2.3Z"></path>
  </g>
  <text class="cls-3" transform="translate(228.15 24.16)">
    <tspan x="0" y="0"> </tspan>
  </text>
  <g>
    <path class="cls-1" d="M150.5,36.1h-.9v-6h-2v-.7h4.9v.7h-2v6Z"></path>
    <path class="cls-1" d="M158.2,33.6c0,.5-.1,.9-.2,1.3-.1,.3-.3,.6-.5,.8s-.5,.4-.7,.4c-.3,.1-.6,.1-1,.1s-.7,0-1-.1-.5-.2-.7-.4-.4-.5-.5-.8-.2-.8-.2-1.3,.1-.9,.2-1.3c.1-.3,.3-.6,.5-.8,.2-.2,.5-.4,.7-.4,.3-.1,.6-.1,1-.1s.7,0,1,.1,.5,.2,.7,.4c.2,.2,.4,.5,.5,.8s.2,.8,.2,1.3Zm-.9,0c0-.4,0-.7-.1-1s-.2-.5-.3-.6c-.1-.1-.3-.2-.5-.3-.2-.1-.4-.1-.6-.1s-.4,0-.6,.1-.3,.2-.5,.3c-.1,.1-.3,.3-.3,.6-.1,.3-.1,.6-.1,1s0,.7,.1,1,.2,.5,.3,.6c.1,.1,.3,.2,.5,.3s.4,.1,.6,.1,.4,0,.6-.1,.3-.2,.5-.3c.1-.1,.3-.3,.3-.6,.1-.3,.1-.6,.1-1Z"></path>
    <path class="cls-1" d="M160.6,30.3h-1v-.9h1v.9Zm0,5.8h-.8v-5.1h.8v5.1Z"></path>
    <path class="cls-1" d="M166.9,33.6c0,.5-.1,.9-.2,1.3-.1,.3-.3,.6-.5,.8s-.5,.4-.7,.4c-.3,.1-.6,.1-1,.1s-.7,0-1-.1-.5-.2-.7-.4-.4-.5-.5-.8-.2-.8-.2-1.3,.1-.9,.2-1.3c.1-.3,.3-.6,.5-.8,.2-.2,.5-.4,.7-.4,.3-.1,.6-.1,1-.1s.7,0,1,.1,.5,.2,.7,.4c.2,.2,.4,.5,.5,.8,.2,.3,.2,.8,.2,1.3Zm-.8,0c0-.4,0-.7-.1-1s-.2-.5-.3-.6c-.1-.1-.3-.2-.5-.3-.2-.1-.4-.1-.6-.1s-.4,0-.6,.1-.3,.2-.5,.3c-.1,.1-.3,.3-.3,.6-.1,.3-.1,.6-.1,1s0,.7,.1,1,.2,.5,.3,.6c.1,.1,.3,.2,.5,.3s.4,.1,.6,.1,.4,0,.6-.1,.3-.2,.5-.3c.1-.1,.3-.3,.3-.6,0-.3,.1-.6,.1-1Z"></path>
    <path class="cls-1" d="M169.2,31.8c.2-.3,.4-.5,.6-.6,.2-.2,.5-.2,.9-.2h.4c.1,0,.2,.1,.3,.1v.7c-.1-.1-.3-.1-.4-.1h-.3c-.4,0-.6,.1-.8,.3-.2,.2-.4,.4-.5,.7v3.5h-.8v-5.2h.6v.8h0Z"></path>
    <path class="cls-1" d="M174.4,33.1h1v-.6c0-.2,0-.3-.1-.5,0-.1-.1-.2-.2-.3-.1-.1-.2-.1-.4-.1h-1.3c-.3,0-.6,.1-.9,.1v-.7c.1,0,.3-.1,.4-.1,.2,0,.3,0,.5-.1h.8c.3,0,.6,0,.9,.1,.2,0,.4,.1,.6,.2s.3,.3,.4,.5,.1,.4,.1,.8v3.7h-.6l-.1-.5h0c-.2,.2-.5,.4-.7,.5-.3,.1-.6,.2-.9,.2s-.5,0-.8-.1c-.2-.1-.4-.2-.6-.3-.1-.1-.2-.3-.3-.5-.1-.2-.1-.4-.1-.6s0-.5,.1-.6,.2-.3,.3-.4c.2-.2,.5-.3,.8-.4,.4-.3,.7-.3,1.1-.3Zm1,.7h-1.4c-.1,0-.3,0-.4,.1-.1,0-.2,.1-.2,.1-.1,0-.1,.1-.2,.1q-.1,.1-.1,.2v.4c0,.3,.1,.5,.3,.6,.2,.1,.4,.2,.7,.2s.6-.1,.8-.2c.2-.1,.4-.3,.5-.5v-1h0Z"></path>
    <path class="cls-1" d="M183.4,36c-.2,.1-.3,.1-.6,.2h-.7c-.3,0-.5,0-.7-.1s-.3-.1-.4-.3c-.1-.1-.2-.3-.2-.5s-.1-.5-.1-.8v-2.7h-.9v-.6l1-.1,.2-1.1h.6v1.1h1.7v.7h-1.7v3.3c0,.1,0,.2,.1,.3s.1,.1,.2,.2,.3,0,.4,0h.5c.1,0,.2,0,.3-.1,.1,0,.2-.1,.2-.1v.6h.1Z"></path>
    <path class="cls-1" d="M185.3,33.7c0,.3,0,.6,.1,.8s.2,.4,.3,.6c.2,.2,.7,.4,1.2,.4h.7c.3,0,.5-.1,.8-.2v.7c-.2,.1-.5,.2-.8,.2h-.8c-.8,0-1.5-.2-1.8-.6-.4-.4-.6-1.1-.6-2,0-.5,.1-.9,.2-1.3,.1-.3,.3-.6,.5-.8,.2-.2,.4-.4,.7-.4,.3-.1,.6-.1,.9-.1,.7,0,1.2,.2,1.5,.5,.3,.4,.5,.9,.5,1.6v.7h-3.4v-.1Zm1.4-2.1c-.2,0-.3,0-.5,.1s-.3,.1-.4,.3c-.2,.2-.4,.6-.4,1.1h2.5v-.2c0-.2,0-.4-.1-.6,0-.2-.1-.3-.2-.4s-.2-.2-.4-.2-.3-.1-.5-.1Z"></path>
    <path class="cls-1" d="M196.6,31.6c0,.1-.1,.3-.2,.5-.1,.2-.1,.4-.2,.6-.1,.2-.1,.4-.2,.6-.1,.2-.1,.4-.2,.5l-.8,2.3h-1l-1.9-6.7h.9l.8,3c.1,.4,.2,.9,.4,1.3,.1,.5,.2,.9,.3,1.4h0c.1-.4,.3-.9,.5-1.3,.2-.4,.3-.9,.5-1.3l.7-2-.4-1.1h.9l1,2.9c.2,.5,.3,.9,.5,1.4s.3,1,.5,1.4h0c.1-.5,.3-1,.4-1.4,.1-.5,.3-1,.4-1.5l.8-2.8h.9l-1.9,6.7h-1l-.8-2.3c-.1-.2-.1-.3-.2-.5s-.1-.4-.2-.6c-.1-.2-.1-.4-.2-.6-.2-.2-.2-.4-.3-.5h0Z"></path>
    <path class="cls-1" d="M204.2,33.1h1v-.6c0-.2,0-.3-.1-.5,0-.1-.1-.2-.2-.3-.1-.1-.2-.1-.4-.1h-1.3c-.3,0-.6,.1-.9,.1v-.7c.1,0,.3-.1,.4-.1,.2,0,.3,0,.5-.1h.8c.3,0,.6,0,.9,.1,.2,0,.4,.1,.6,.2s.3,.3,.4,.5,.1,.4,.1,.8v3.7h-.6l-.1-.5h0c-.2,.2-.5,.4-.7,.5-.3,.1-.6,.2-.9,.2s-.5,0-.8-.1c-.2-.1-.4-.2-.6-.3-.1-.1-.2-.3-.3-.5-.1-.2-.1-.4-.1-.6s0-.5,.1-.6,.2-.3,.3-.4c.2-.2,.5-.3,.8-.4,.4-.3,.7-.3,1.1-.3Zm1,.7h-1.4c-.1,0-.3,0-.4,.1-.1,0-.2,.1-.2,.1-.1,0-.1,.1-.2,.1q-.1,.1-.1,.2v.4c0,.3,.1,.5,.3,.6,.2,.1,.4,.2,.7,.2s.6-.1,.8-.2c.2-.1,.4-.3,.5-.5v-1h0Z"></path>
    <path class="cls-1" d="M208.7,30.3h-1v-.9h1v.9Zm-.1,5.8h-.8v-5.1h.8v5.1Z"></path>
  </g>
  <text class="cls-3" transform="translate(209.49 36.1)">
    <tspan x="0" y="0"> </tspan>
  </text>
  <path class="cls-1" d="M133.4,44.8c0-.3,.2-.5,.5-.5h0c.3,0,.5,.2,.5,.5h0c0,.3-.2,.5-.5,.5h0c-.3,0-.5-.2-.5-.5Zm0-2.9c0-.3,.2-.5,.5-.5h0c.3,0,.5,.2,.5,.5h0c0,.3-.2,.5-.5,.5h0c-.3,0-.5-.2-.5-.5Zm0-2.9c0-.3,.2-.5,.5-.5h0c.3,0,.5,.2,.5,.5h0c0,.3-.2,.5-.5,.5h0c-.3,0-.5-.3-.5-.5Zm0-2.9c0-.3,.2-.5,.5-.5h0c.3,0,.5,.2,.5,.5h0c0,.3-.2,.5-.5,.5h0c-.3,0-.5-.3-.5-.5Zm0-2.9c0-.3,.2-.5,.5-.5h0c.3,0,.5,.2,.5,.5h0c0,.3-.2,.5-.5,.5h0c-.3,0-.5-.3-.5-.5Zm0-3c0-.3,.2-.5,.5-.5h0c.3,0,.5,.2,.5,.5h0c0,.3-.2,.5-.5,.5h0c-.3,.1-.5-.2-.5-.5Zm0-2.9c0-.3,.2-.5,.5-.5h0c.3,0,.5,.2,.5,.5h0c0,.3-.2,.5-.5,.5h0c-.3,0-.5-.2-.5-.5Zm0-2.9c0-.3,.2-.5,.5-.5h0c.3,0,.5,.2,.5,.5h0c0,.3-.2,.5-.5,.5h0c-.3,0-.5-.2-.5-.5Zm0-2.9c0-.3,.2-.5,.5-.5h0c.3,0,.5,.2,.5,.5h0c0,.3-.2,.5-.5,.5h0c-.3,0-.5-.2-.5-.5Zm0-2.9c0-.3,.2-.5,.5-.5h0c.3,0,.5,.2,.5,.5h0c0,.3-.2,.5-.5,.5h0c-.3,0-.5-.2-.5-.5Zm0-2.9c0-.3,.2-.5,.5-.5h0c.3,0,.5,.2,.5,.5h0c0,.3-.2,.5-.5,.5h0c-.3,0-.5-.2-.5-.5Zm0-2.9c0-.3,.2-.5,.5-.5h0c.3,0,.5,.2,.5,.5h0c0,.3-.2,.5-.5,.5h0c-.3,0-.5-.2-.5-.5Z"></path>
  <path class="cls-5" d="M133.9,9.9h0m0,37.8h0"></path>
  <path class="cls-4" d="M354.08,26.4c-.5-.4-.8-1-.8-1.6s.3-1.2,.7-1.6l.1-.1c.5-.4,1.1-.6,1.8-.6s1.3,.2,1.8,.6h0c.5,.5,1.2,.8,2,.8,1.5,0,2.6-1,2.6-2.3s-1.2-2.3-2.6-2.3c-.7,0-1.4,.3-1.9,.7h0c-.5,.4-1.1,.7-1.9,.7-.7,0-1.4-.3-1.8-.7-.5-.4-1.2-.7-1.9-.7-1.5,0-2.6,1-2.6,2.3,0,.7,.4,1.4,1,1.8,.4,.4,.6,.9,.6,1.4s-.2,1-.6,1.4c-.6,.4-1,1.1-1,1.8,0,.8,.4,1.4,1,1.8,.3,.4,.6,.9,.6,1.4s-.2,1-.6,1.4c-.6,.4-1,1.1-1,1.8,0,1.3,1.2,2.3,2.6,2.3,.8,0,1.5-.3,2-.8,.5-.4,1.1-.6,1.8-.6s1.3,.2,1.8,.6c.5,.5,1.2,.7,1.9,.7,1.5,0,2.6-1,2.6-2.3s-1.2-2.3-2.6-2.3c-.7,0-1.4,.3-1.9,.7h0c-.5,.4-1.1,.7-1.9,.7-.7,0-1.4-.3-1.8-.7h0c-.5-.4-.8-1-.8-1.6s.3-1.2,.7-1.6c.1,0,.1-.1,.2-.1,.5-.4,1.1-.6,1.8-.6s1.3,.2,1.8,.6c.5,.5,1.2,.7,1.9,.7,1.5,0,2.6-1,2.6-2.3s-1.2-2.3-2.6-2.3c-.7,0-1.4,.3-1.9,.7h0c-.5,.4-1.1,.7-1.9,.7-.6,.2-1.3,0-1.8-.5h0Zm-6.5,23.8c.1-.4,.1-1,.1-1.1,0-2.6-1-4-3.6-4s-4.1,1.3-4.1,5c0,3.5,1.4,5,4.4,5,.9,0,2.1-.1,3-.4v-1c-1,.4-2,.5-2.8,.5-1.1,0-1.9-.2-2.4-.8-.6-.6-.9-1.7-.9-3.2h6.3Zm-1-1.3v.4h-5.5c.1-1.3,.4-2.1,.9-2.6s1.2-.7,2-.7c.9,0,1.5,.2,1.9,.6,.5,.5,.7,1.2,.7,2.3h0Zm.4-13.8c0-.9-.7-1.5-1.5-1.5h-4.7s-.6,0-.7-.4l-1.8-3.8c-.4-.8-1.3-1.1-2.1-.7-.7,.4-1,1.3-.7,2.1l1.8,3.7c.8,1.7,2.5,2.2,3.5,2.2h4.7c.8-.1,1.5-.7,1.5-1.6h0Zm0-11v-4.5h-6.1c-1,0-2.8,.4-3.6,2.2l-1.8,3.6c-.4,.8-.1,1.7,.7,2.1,.2,.1,.5,.2,.7,.2,.6,0,1.1-.3,1.4-.9l1.8-3.7h0c.2-.3,.7-.4,.7-.4h3.1v1.4c0,.9,.7,1.5,1.5,1.5,.9,0,1.6-.7,1.6-1.5h0Zm-1.6-10.7h1.1V.5h-1.1V13.4h0Zm-4,0h.8V6.3c0-2.3-1.1-2.8-3.5-2.8-.8,0-2.1,.1-3.1,.3v.9c1.1-.2,2.2-.3,2.9-.3,1.8,0,2.5,.2,2.5,2v1.5c-.7,0-1.5-.1-1.9-.1-1.5,0-2.9,.2-3.6,.9-.5,.5-.7,1.1-.7,2,0,.8,.3,1.5,.7,2,.6,.6,1.5,.8,2.5,.8,1.2,0,2.2-.4,3.1-1.2h0l.3,1.1h0Zm-.3-2c-.6,.7-1.5,1.2-2.8,1.2s-2.3-.5-2.3-1.9c0-.7,.2-1.1,.4-1.4,.5-.5,1.3-.6,2.8-.6,.4,0,1.1,0,1.8,.1v2.6h.1Zm-4.9,34.5c-.7-.6-1.8-.8-2.7-.8-2.7,0-4.3,1.4-4.3,4.6s1.3,4.6,3.9,4.6c1,0,2.1-.4,2.9-1.3h0v1.7c0,2.2-1.5,2.6-3.2,2.6-1.1,0-2.1-.2-2.9-.5v1c.9,.3,2.1,.4,3.1,.4,1.8,0,4.2-.4,4.2-3.7v-9.4h-.8l-.2,.8h0Zm-.2,5.9c-.7,1-1.7,1.6-2.8,1.6-1.9,0-2.9-1-2.9-3.7s1.3-3.7,3.3-3.7c.9,0,1.8,.2,2.4,.8v5h0Zm-6.3-15.4h3.2V19.8h-3.5v8.8h-6.9v.7l7.2,7.1h0Zm1.6-23h1.1V6.6c0-2-.6-3-3-3-1.4,0-2.7,.4-3.7,1.6h0l-.1-1.4h-.8V13.5h1.1V6.2c.9-1.1,2.1-1.7,3.4-1.7,1.6,0,2.1,.6,2.1,2.3v6.6h-.1Zm-9.4-4.8c0-3.7-1.6-5.1-4.3-5.1s-4.3,1.3-4.3,5.1,1.6,5.1,4.3,5.1c2.7-.1,4.3-1.4,4.3-5.1h0Zm-1.1,0c0,1.6-.3,2.7-.9,3.3-.6,.6-1.3,.8-2.3,.8s-1.7-.2-2.3-.8-.9-1.7-.9-3.3,.3-2.7,.9-3.3c.6-.6,1.3-.8,2.3-.8s1.7,.2,2.3,.8c.6,.5,.9,1.6,.9,3.3h0Zm-9.7,10.9c-2.7,0-4.9,1.2-6.7,3.4-1.7,2.3-2.6,4.8-2.6,7.5,0,2,.6,3.6,1.7,4.7,1.1,1.1,2.6,1.7,4.4,1.7,1.7,0,3-.4,3.9-1.1,1-.7,1.5-1.5,1.5-2.3,0-.4-.1-.7-.3-.8-1.2,1.5-2.7,2.2-4.5,2.2-2.3,0-3.4-1.4-3.4-4.2,0-.6,0-1,.1-1.3h1.1c2.5,0,4.6-.6,6.4-1.9,1.7-1.2,2.6-2.7,2.6-4.4-.1-2.2-1.6-3.5-4.2-3.5h0Zm.9,3.6c0,1.4-.6,2.6-1.8,3.5s-2.7,1.3-4.5,1.3h-.3c.5-2.1,1.2-3.7,2-5s1.8-1.9,2.8-1.9c1.2,0,1.8,.7,1.8,2.1h0Zm-1.6-9.7V3.7h-1.1V13.4h1.1Zm-1.2-11.3h1.3V.5h-1.2v1.6h-.1Zm-4.2,11.5c.8,0,1.7-.2,2.2-.4v-1c-.4,.2-1.3,.4-1.9,.4-1.5,0-1.7-.5-1.7-2.1V4.6h3.4v-.9h-3.4V1.5h-.8l-.3,2.2-1.9,.2v.7h1.9v5.9c0,2.3,.6,3.1,2.5,3.1h0Zm-4,28.4h-1.1v12.9h1.1v-12.9h0Zm-1.9-22.6c0-1.2-.9-2.1-2.2-2.1s-2.2,.9-2.2,2.1c0,1.1,.8,2.1,2.1,2.1,1.4,0,2.3-.9,2.3-2.1h0Zm-1.2-6h.8V6.3c0-2.3-1.1-2.8-3.5-2.8-.8,0-2.1,.1-3.1,.3v.9c1.1-.2,2.2-.3,2.9-.3,1.8,0,2.5,.2,2.5,2v1.5c-.7,0-1.5-.1-1.9-.1-1.5,0-2.9,.2-3.6,.9-.5,.5-.7,1.1-.7,2,0,.8,.3,1.5,.7,2,.6,.6,1.5,.8,2.5,.8,1.2,0,2.2-.4,3.1-1.2h0l.3,1.1h0Zm-.3-2c-.6,.7-1.5,1.2-2.8,1.2s-2.3-.5-2.3-1.9c0-.7,.2-1.1,.4-1.4,.5-.5,1.3-.6,2.8-.6,.4,0,1.1,0,1.8,.1v2.6h.1Zm-8.4,12.8h1.8v-4h0c-1.5-.6-3.7-.6-4.2-.6-5,0-7.4,2.6-7.4,8.6s2.7,8.6,7.4,8.6c1,0,3.3-.2,4.6-.7v-2.6c-1.2,.4-3,.6-4,.6-3,0-4.4-.9-4.4-5.9,0-4.7,1.4-5.9,4.4-5.9,1.7,0,1.8,1.9,1.8,1.9h0Zm-1.8-10.8h1.3V.5h-1.2V11.7h0c-.3-.5-2.4-3.8-2.7-4.3l-4.4-6.9h-1.3V13.4h1.2V2.3h0c.3,.5,2.4,3.8,2.7,4.3l4.4,6.8h0Zm-9.9,17.8c0-4.9-3.4-5.4-6.3-5.5-1.8-.1-2.9-.1-2.9-1.5,0-1.2,1-1.6,3.2-1.6,1,0,2.6,.1,4.5,.4v-3.3c-1.2-.4-3.9-.6-5-.6-5,0-7.4,2-7.4,5.4,0,4.8,3.3,5.2,6.2,5.3,1.8,.1,3,.2,3,1.6,0,1.2-.8,1.8-3.2,1.8-1.2,0-3.6-.2-5.5-.6v3.5c2.1,.7,4.8,.8,5.7,.8,5.1,0,7.7-2.4,7.7-5.7h0Zm-2.1,.1c0,1.5-.8,4-5.8,4-.7,0-1.8-.1-3-.2-.1,.3-.4,.5-.8,.5-.5,0-.8-.4-.8-.8,0-.5,.4-.8,.8-.8s.7,.3,.8,.6c1.2,.2,2.4,.2,2.9,.2,1.8,0,3.1-.3,4-1,.8-.6,1.2-1.4,1.2-2.5,0-2.8-1.9-3.1-4.4-3.3-2-.1-4.8-.2-4.8-3.7,0-2.5,1.9-3.8,5.6-3.8,.5,0,1.3,0,2.2,.1,.1-.3,.4-.4,.7-.4,.5,0,.8,.4,.8,.8,0,.5-.4,.8-.8,.8s-.8-.3-.8-.7c-.9-.1-1.6-.1-2.1-.1-3.4,0-5.1,1-5.1,3.2,0,2.7,1.8,3,4.3,3.1,2.1,.3,5.1,.4,5.1,4h0Zm-6.9,17.2c0,5,1.9,6.6,5.2,6.6,.9,0,2.3-.1,3.2-.5v-1c-.9,.3-2.1,.5-3,.5-2.7,0-4.1-1.1-4.1-5.6s1.5-5.7,4.1-5.7c.7,0,1.8,.1,2.8,.4v-1c-1.1-.3-2.2-.4-3-.4-3.3,0-5.2,1.6-5.2,6.7h0Zm11.9-6.5h-1.1v12.9h1.1v-7.2c.9-1.1,2.1-1.7,3.4-1.7,1.6,0,2.1,.6,2.1,2.3v6.6h1.1v-6.9c0-2-.6-3-3-3-1.3,0-2.6,.4-3.6,1.5h0v-4.5h0Zm14.5-5.6h4.1v-13.3h-4.1v13.3h0Zm-4.7,13.8c-.5,.5-.7,1.1-.7,2,0,.8,.3,1.5,.7,2,.6,.6,1.5,.8,2.5,.8,1.2,0,2.2-.4,3.1-1.2h0l.1,1h.8v-7.1c0-2.3-1.1-2.8-3.5-2.8-.8,0-2.1,.1-3.1,.3v.9c1.1-.2,2.2-.3,2.9-.3,1.8,0,2.5,.2,2.5,2v1.5c-.7,0-1.5-.1-1.9-.1-1.4,.1-2.7,.3-3.4,1h0Zm.4,2.1c0-.7,.2-1.1,.4-1.4,.5-.5,1.3-.6,2.8-.6,.4,0,1.1,0,1.8,.1v2.7c-.6,.7-1.5,1.2-2.8,1.2-1.2-.2-2.2-.6-2.2-2h0Zm14.9-10.3h-1.1v12.9h1.1v-12.9h0Zm2.8,8.1c0,3.5,1.4,5,4.4,5,.9,0,2.1-.1,3-.4v-1c-1,.4-2,.5-2.8,.5-1.1,0-1.9-.2-2.4-.8-.6-.6-.9-1.7-.9-3.2h6.5c.1-.4,.1-1,.1-1.1,0-2.6-1-4-3.6-4-2.6-.1-4.3,1.3-4.3,5h0Zm1.2-.8c.1-1.3,.4-2.1,.9-2.6s1.2-.7,2-.7c.9,0,1.5,.2,1.9,.6,.5,.5,.7,1.3,.7,2.3v.4h-5.5Zm11.4-29.5h-3.2v16.6h3.5v-8.8h6.9v-.7l-7.2-7.1h0Zm-1.2,25.4h-.8v9.7h1.1v-7.2c.9-1.1,2.1-1.7,3.4-1.7,1.6,0,2.1,.6,2.1,2.3v6.6h1.1v-6.9c0-2-.6-3-3-3-1.4,0-2.7,.4-3.7,1.6h0l-.2-1.4h0Zm36.2,7c0,1.4-1.1,1.9-2.9,1.9-.8,0-2.1-.2-3-.5v1c.8,.3,2.2,.4,3,.4,2,0,4-.7,4-2.9,0-2.5-1.7-2.7-3.4-2.8-1.3-.1-2.5-.1-2.5-1.7,0-1.3,1.1-1.7,2.6-1.7,.7,0,1.7,.1,2.6,.3v-.9c-.8-.2-1.9-.3-2.5-.3-1.9,0-3.7,.6-3.7,2.7,0,2.6,1.9,2.7,3.4,2.8,1.3,0,2.4,.1,2.4,1.7h0Z"></path>
</svg>
