<svg width="2179" height="535" viewBox="0 0 2179 535" fill="none" xmlns="http://www.w3.org/2000/svg">
<rect width="2179" height="535" fill="none"/>
<path d="M170.851 326.497C170.851 316.785 167.424 309.359 160.568 304.217C153.713 298.961 141.373 293.477 123.549 287.764C105.725 281.937 91.6138 276.224 81.2163 270.625C52.8804 255.315 38.7124 234.691 38.7124 208.755C38.7124 195.272 42.4829 183.275 50.0239 172.763C57.6792 162.137 68.5908 153.853 82.7588 147.912C97.041 141.971 113.037 139 130.747 139C148.571 139 164.453 142.256 178.392 148.769C192.332 155.167 203.129 164.251 210.784 176.02C218.554 187.788 222.439 201.156 222.439 216.124H171.023C171.023 204.698 167.424 195.843 160.225 189.559C153.027 183.161 142.915 179.962 129.89 179.962C117.322 179.962 107.553 182.647 100.583 188.017C93.6133 193.273 90.1284 200.242 90.1284 208.926C90.1284 217.038 94.1846 223.837 102.297 229.321C110.523 234.805 122.577 239.947 138.459 244.746C167.709 253.544 189.018 264.455 202.386 277.481C215.755 290.506 222.439 306.731 222.439 326.155C222.439 347.749 214.269 364.717 197.93 377.056C181.591 389.282 159.597 395.395 131.946 395.395C112.751 395.395 95.27 391.91 79.5024 384.94C63.7348 377.856 51.6806 368.201 43.3398 355.976C35.1133 343.75 31 329.582 31 313.472H82.5874C82.5874 341.008 99.0405 354.776 131.946 354.776C144.172 354.776 153.713 352.32 160.568 347.406C167.424 342.379 170.851 335.409 170.851 326.497ZM488.397 308.844C486.454 335.695 476.514 356.833 458.575 372.258C440.751 387.682 417.214 395.395 387.964 395.395C355.972 395.395 330.778 384.655 312.382 363.174C294.101 341.579 284.961 311.987 284.961 274.396V259.142C284.961 235.148 289.188 214.01 297.643 195.729C306.098 177.448 318.152 163.451 333.806 153.739C349.573 143.913 367.855 139 388.649 139C417.442 139 440.637 146.712 458.233 162.137C475.828 177.562 485.997 199.214 488.739 227.093H437.323C436.066 210.983 431.553 199.328 423.784 192.13C416.128 184.818 404.417 181.161 388.649 181.161C371.511 181.161 358.657 187.331 350.087 199.671C341.632 211.897 337.291 230.921 337.062 256.743V275.595C337.062 302.56 341.118 322.27 349.231 334.724C357.457 347.178 370.368 353.405 387.964 353.405C403.846 353.405 415.671 349.806 423.441 342.608C431.325 335.295 435.838 324.041 436.981 308.844H488.397ZM698.14 340.551H607.99L590.852 391.967H536.179L629.071 142.428H676.716L770.122 391.967H715.45L698.14 340.551ZM621.873 298.904H684.257L652.894 205.498L621.873 298.904ZM920.908 300.618H879.947V391.967H828.531V142.428H921.251C950.729 142.428 973.467 148.998 989.463 162.137C1005.46 175.277 1013.46 193.844 1013.46 217.838C1013.46 234.863 1009.74 249.088 1002.32 260.513C995.004 271.825 983.864 280.851 968.896 287.592L1022.88 389.568V391.967H967.697L920.908 300.618ZM879.947 258.971H921.422C934.333 258.971 944.331 255.715 951.415 249.202C958.499 242.575 962.041 233.491 962.041 221.951C962.041 210.183 958.67 200.928 951.929 194.187C945.302 187.446 935.076 184.075 921.251 184.075H879.947V258.971ZM1454.02 340.551H1363.87L1346.73 391.967H1292.06L1384.95 142.428H1432.6L1526 391.967H1471.33L1454.02 340.551ZM1377.75 298.904H1440.14L1408.77 205.498L1377.75 298.904ZM1751.68 184.075H1675.25V391.967H1623.83V184.075H1548.42V142.428H1751.68V184.075ZM2006.84 184.075H1930.41V391.967H1878.99V184.075H1803.58V142.428H2006.84V184.075ZM2126.1 391.967H2074.68V142.428H2126.1V391.967Z" fill="#3C3C3C"/>
<path d="M1139.34 350.663H1248.51V391.967H1087.92V142.428H1139.34V350.663Z" fill="#E4813F"/>
</svg>
